# xmcd
#
# Track frame offsets: 
#        150
#        12797
#        33844
#        50537
#        77666
#        97562
#        131612
#
# Disc length: 2134 seconds
#
# Revision: 0
# Processed by: cddbd v1.5.2PL0 Copyright (c) Steve Scherf et al.
# Submitted via: ExactAudioCopy v0.95b3
#
DISCID=42085407
DTITLE=Various Artist - Divine Eve - Vex [Split CD]
DYEAR=2012
DGENRE=Metal
TTITLE0=Divine Eve - Vindication
TTITLE1=Divine Eve - Grievous Ascendance
TTITLE2=Divine Eve - Whispers of Fire
TTITLE3=Divine Eve - The Ravages of Heathen Men
TTITLE4=Vex - The Circular Ruins
TTITLE5=Vex - No Such Thing
TTITLE6=Vex - Wasteland
EXTD=
EXTT0=
EXTT1=
EXTT2=
EXTT3=
EXTT4=
EXTT5=
EXTT6=
PLAYORDER=
